<?xml version="1.0" encoding="utf-8"?>
<!-- Uploaded to: SVG Repo, www.svgrepo.com, Generator: SVG Repo Mixer Tools -->
<svg width="800px" height="800px" viewBox="0 0 1024 1024" class="icon"  version="1.1" xmlns="http://www.w3.org/2000/svg"><path d="M912.64 200A21.312 21.312 0 0 0 896 192H170.666667v426.666667h640c10.005333 0 18.645333-6.954667 20.842666-16.704l85.333334-384a21.333333 21.333333 0 0 0-4.202667-17.962667z" fill="#43A6DD" /><path d="M981.333333 746.666667H170.666667a21.333333 21.333333 0 0 1-21.333334-21.333334V106.666667H42.666667a21.333333 21.333333 0 1 1 0-42.666667h128a21.333333 21.333333 0 0 1 21.333333 21.333333v618.666667h789.333333a21.333333 21.333333 0 1 1 0 42.666667z" fill="#B3B3B3" /><path d="M277.333333 789.333333a85.333333 85.333333 0 1 0 0 170.666667 85.333333 85.333333 0 0 0 0-170.666667zM853.333333 789.333333a85.333333 85.333333 0 1 0 0 170.666667 85.333333 85.333333 0 0 0 0-170.666667z" fill="#223E49" /><path d="M277.333333 874.666667m-42.666666 0a42.666667 42.666667 0 1 0 85.333333 0 42.666667 42.666667 0 1 0-85.333333 0Z" fill="#FFFFFF" /><path d="M853.333333 874.666667m-42.666666 0a42.666667 42.666667 0 1 0 85.333333 0 42.666667 42.666667 0 1 0-85.333333 0Z" fill="#FFFFFF" /></svg>